ffmpeg version 2.1.1 Copyright (c) 2000-2013 the FFmpeg developers
  built on Dec 20 2014 10:34:55 with gcc 4.7 (Debian 4.7.2-5)
  configuration: --enable-gpl --enable-nonfree --enable-postproc --enable-pthreads --enable-x11grab --enable-swscale --enable-version3 --enable-shared --disable-yasm --enable-filter=movie --enable-frei0r --enable-libdc1394 --enable-libfaac --enable-libmp3lame --enable-libx264 --enable-libxvid --enable-libfreetype --enable-libvorbis --enable-libgsm --enable-libopencore-amrnb --enable-libopencore-amrwb --enable-libopenjpeg --enable-librtmp --enable-libschroedinger --enable-libspeex --enable-libtheora --enable-libvpx --enable-libvo-amrwbenc --enable-libvo-aacenc --enable-libaacplus --enable-libxavs --enable-bzlib --enable-openssl --enable-gnutls --enable-openal --enable-libv4l2 --enable-libpulse --enable-libmodplug --enable-libass --enable-libcdio --enable-vdpau --enable-libbluray
  libavutil      52. 48.101 / 52. 48.101
  libavcodec     55. 39.101 / 55. 39.101
  libavformat    55. 19.104 / 55. 19.104
  libavdevice    55.  5.100 / 55.  5.100
  libavfilter     3. 90.100 /  3. 90.100
  libswscale      2.  5.101 /  2.  5.101
  libswresample   0. 17.104 /  0. 17.104
  libpostproc    52.  3.100 / 52.  3.100
Input #0, matroska,webm, from '/var/www/business-supermarket.co.uk/web/www/temp/0590565001426755695.webm':
  Metadata:
    creation_time   : 2015-02-19 13:19:52
  Duration: 00:03:28.49, start: 0.000000, bitrate: 293 kb/s
    Stream #0:0(eng): Video: vp8, yuv420p, 1366x768, SAR 1:1 DAR 683:384, 1k tbr, 1k tbn, 1k tbc (default)
    Metadata:
      title           : Video
Please use -b:a or -b:v, -b is ambiguous
Codec AVOption ab (set bitrate (in bits/s)) specified for output file #0 (/var/www/business-supermarket.co.uk/web/www/upload/users/anandgal_947/videos/0590565001426755695.flv) has not been used for any stream. The most likely reason is either wrong type (e.g. a video option with no video streams) or that it is a private option of some encoder which was not actually used for any stream.
Output #0, flv, to '/var/www/business-supermarket.co.uk/web/www/upload/users/anandgal_947/videos/0590565001426755695.flv':
  Metadata:
    encoder         : Lavf55.19.104
    Stream #0:0(eng): Video: flv1 (flv) ([2][0][0][0] / 0x0002), yuv420p, 512x384 [SAR 683:512 DAR 683:384], q=2-31, 1000 kb/s, 1k tbn, 30 tbc (default)
    Metadata:
      title           : Video
Stream mapping:
  Stream #0:0 -> #0:0 (vp8 -> flv)
Press [q] to stop, [?] for help
frame=   39 fps=0.0 q=2.0 size=     400kB time=00:00:04.73 bitrate= 692.8kbits/s    frame=   81 fps= 80 q=2.0 size=     917kB time=00:00:07.73 bitrate= 971.0kbits/s    frame=  129 fps= 85 q=2.0 size=    1251kB time=00:00:11.63 bitrate= 880.7kbits/s    frame=  178 fps= 88 q=2.0 size=    1581kB time=00:00:20.20 bitrate= 641.2kbits/s    frame=  227 fps= 90 q=2.0 size=    1838kB time=00:00:24.23 bitrate= 621.3kbits/s    frame=  272 fps= 90 q=2.0 size=    2140kB time=00:00:27.83 bitrate= 629.7kbits/s    frame=  318 fps= 90 q=2.0 size=    2651kB time=00:00:29.76 bitrate= 729.6kbits/s    frame=  364 fps= 90 q=2.0 size=    3203kB time=00:00:32.73 bitrate= 801.6kbits/s    frame=  409 fps= 90 q=1.6 size=    3574kB time=00:00:35.06 bitrate= 834.8kbits/s    frame=  453 fps= 90 q=2.0 size=    3802kB time=00:00:39.40 bitrate= 790.6kbits/s    frame=  496 fps= 89 q=2.0 size=    4204kB time=00:00:46.43 bitrate= 741.7kbits/s    frame=  539 fps= 89 q=2.0 size=    4468kB time=00:00:50.70 bitrate= 721.9kbits/s    frame=  579 fps= 88 q=2.0 size=    4780kB time=00:00:55.23 bitrate= 709.0kbits/s    frame=  618 fps= 88 q=2.0 size=    5024kB time=00:01:03.90 bitrate= 644.1kbits/s    frame=  661 fps= 87 q=1.6 size=    5345kB time=00:01:08.93 bitrate= 635.2kbits/s    frame=  702 fps= 87 q=2.0 size=    5591kB time=00:01:14.30 bitrate= 616.5kbits/s    frame=  746 fps= 87 q=2.0 size=    5941kB time=00:01:18.26 bitrate= 621.8kbits/s    frame=  767 fps= 84 q=2.0 size=    5990kB time=00:01:21.56 bitrate= 601.5kbits/s    frame=  803 fps= 84 q=2.0 size=    6112kB time=00:01:23.80 bitrate= 597.5kbits/s    frame=  840 fps= 83 q=2.0 size=    6225kB time=00:01:25.43 bitrate= 596.9kbits/s    frame=  879 fps= 83 q=2.0 size=    6349kB time=00:01:27.00 bitrate= 597.8kbits/s    frame=  921 fps= 83 q=2.0 size=    6553kB time=00:01:28.56 bitrate= 606.1kbits/s    frame=  962 fps= 83 q=2.0 size=    6753kB time=00:01:29.93 bitrate= 615.1kbits/s    frame= 1000 fps= 82 q=2.0 size=    6969kB time=00:01:33.13 bitrate= 613.0kbits/s    frame= 1030 fps= 80 q=2.0 size=    7224kB time=00:01:36.03 bitrate= 616.3kbits/s    frame= 1072 fps= 80 q=2.0 size=    7547kB time=00:01:43.50 bitrate= 597.4kbits/s    frame= 1110 fps= 80 q=2.0 size=    7790kB time=00:01:45.00 bitrate= 607.7kbits/s    frame= 1148 fps= 79 q=2.0 size=    8026kB time=00:01:50.16 bitrate= 596.8kbits/s    frame= 1186 fps= 79 q=2.0 size=    8155kB time=00:01:53.20 bitrate= 590.2kbits/s    frame= 1225 fps= 79 q=1.6 size=    8307kB time=00:01:54.86 bitrate= 592.5kbits/s    frame= 1265 fps= 79 q=2.0 size=    8407kB time=00:01:56.46 bitrate= 591.4kbits/s    frame= 1308 fps= 79 q=2.0 size=    8543kB time=00:01:58.00 bitrate= 593.1kbits/s    frame= 1347 fps= 79 q=2.0 size=    8703kB time=00:01:59.30 bitrate= 597.6kbits/s    frame= 1381 fps= 79 q=1.6 size=    8988kB time=00:02:01.73 bitrate= 604.8kbits/s    frame= 1416 fps= 79 q=2.0 size=    9154kB time=00:02:03.73 bitrate= 606.1kbits/s    frame= 1455 fps= 79 q=2.0 size=    9474kB time=00:02:05.36 bitrate= 619.1kbits/s    frame= 1497 fps= 79 q=2.0 size=    9719kB time=00:02:09.26 bitrate= 615.9kbits/s    frame= 1539 fps= 79 q=2.0 size=   10042kB time=00:02:14.53 bitrate= 611.5kbits/s    frame= 1582 fps= 79 q=2.0 size=   10288kB time=00:02:21.66 bitrate= 594.9kbits/s    frame= 1622 fps= 79 q=2.0 size=   10609kB time=00:02:28.83 bitrate= 583.9kbits/s    frame= 1661 fps= 79 q=2.0 size=   10846kB time=00:02:31.80 bitrate= 585.3kbits/s    frame= 1701 fps= 79 q=2.0 size=   11096kB time=00:02:34.30 bitrate= 589.1kbits/s    frame= 1738 fps= 79 q=2.0 size=   11371kB time=00:02:38.03 bitrate= 589.4kbits/s    frame= 1777 fps= 79 q=1.6 size=   11552kB time=00:02:41.06 bitrate= 587.5kbits/s    frame= 1815 fps= 79 q=2.0 size=   11664kB time=00:02:42.76 bitrate= 587.0kbits/s    frame= 1856 fps= 79 q=2.0 size=   11763kB time=00:02:44.50 bitrate= 585.8kbits/s    frame= 1896 fps= 79 q=2.0 size=   11897kB time=00:02:45.90 bitrate= 587.5kbits/s    frame= 1933 fps= 79 q=1.6 size=   12055kB time=00:02:47.13 bitrate= 590.9kbits/s    frame= 1963 fps= 78 q=2.0 size=   12266kB time=00:02:48.90 bitrate= 594.9kbits/s    frame= 1990 fps= 78 q=2.0 size=   12425kB time=00:02:51.33 bitrate= 594.1kbits/s    frame= 2018 fps= 77 q=2.0 size=   12661kB time=00:02:55.03 bitrate= 592.6kbits/s    frame= 2053 fps= 77 q=1.6 size=   12902kB time=00:02:59.26 bitrate= 589.6kbits/s    frame= 2088 fps= 77 q=2.0 size=   13068kB time=00:03:04.60 bitrate= 579.9kbits/s    frame= 2121 fps= 77 q=2.0 size=   13309kB time=00:03:08.06 bitrate= 579.7kbits/s    frame= 2156 fps= 77 q=2.0 size=   13559kB time=00:03:12.46 bitrate= 577.1kbits/s    frame= 2190 fps= 76 q=2.0 size=   13800kB time=00:03:13.60 bitrate= 583.9kbits/s    frame= 2225 fps= 76 q=2.0 size=   14078kB time=00:03:15.26 bitrate= 590.6kbits/s    frame= 2260 fps= 76 q=2.0 size=   14350kB time=00:03:16.63 bitrate= 597.9kbits/s    frame= 2294 fps= 76 q=2.0 size=   14537kB time=00:03:19.53 bitrate= 596.8kbits/s    frame= 2334 fps= 76 q=2.0 size=   14715kB time=00:03:20.86 bitrate= 600.1kbits/s    frame= 2373 fps= 76 q=2.0 size=   14892kB time=00:03:22.16 bitrate= 603.4kbits/s    frame= 2413 fps= 76 q=1.6 size=   15180kB time=00:03:23.50 bitrate= 611.1kbits/s    frame= 2452 fps= 76 q=2.0 size=   15534kB time=00:03:24.93 bitrate= 620.9kbits/s    frame= 2469 fps= 76 q=2.0 Lsize=   15615kB time=00:03:28.36 bitrate= 613.9kbits/s    
video:15576kB audio:0kB subtitle:0 global headers:0kB muxing overhead 0.249003%
